# xmcd
#
# Track frame offsets: 
#        150
#        19312
#        34275
#        55812
#        71925
#        88062
#        108337
#        125487
#        143700
#        159250
#        178075
#        178825
#        179587
#        180337
#        181087
#        181837
#        182575
#        183325
#        184087
#        184837
#        185587
#        186337
#        187087
#        187837
#        188587
#        189337
#        190087
#        190850
#        191600
#        192350
#        193100
#        193837
#        194600
#        195350
#        196100
#        196850
#        197600
#        198350
#        199100
#        199850
#        200600
#        201350
#        202100
#        202850
#        203600
#        204350
#        205100
#        205862
#        206612
#        207362
#        208112
#        208862
#        209612
#        210362
#        211112
#        211862
#        212612
#        213362
#        214112
#        214862
#        215612
#        216375
#        217112
#        217862
#        218612
#        219375
#        220112
#        220862
#        221612
#        222375
#        223125
#        223875
#        224625
#        225375
#        226125
#        226875
#        227625
#        228375
#        229137
#        229887
#        230637
#        231375
#        232137
#        232887
#        233625
#        234375
#        235137
#        235887
#        236637
#        237387
#        238137
#        238887
#        239650
#        240387
#        241137
#        241887
#        247900
#
# Disc length: 3629 seconds
#
# Revision: 3
# Processed by: cddbd v1.5.1PL2 Copyright (c) Steve Scherf et al.
# Submitted via: ExactAudioCopy v0.95b4
#
DISCID=f40e2b61
DTITLE=余力機構 - YLK Organization
DYEAR=1997
DGENRE=Blues
TTITLE0=明星般的男孩
TTITLE1=奴隸獸
TTITLE2=沏茶
TTITLE3=愛之過
TTITLE4=天氣報告
TTITLE5=安魂曲
TTITLE6=活著
TTITLE7=戀愛像玫瑰
TTITLE8=春田花花
TTITLE9=鋼琴自戀
TTITLE10=11
TTITLE11=12
TTITLE12=13
TTITLE13=14
TTITLE14=15
TTITLE15=16
TTITLE16=17
TTITLE17=18
TTITLE18=19
TTITLE19=20
TTITLE20=21
TTITLE21=22
TTITLE22=23
TTITLE23=24
TTITLE24=25
TTITLE25=26
TTITLE26=27
TTITLE27=28
TTITLE28=29
TTITLE29=30
TTITLE30=31
TTITLE31=32
TTITLE32=33
TTITLE33=34
TTITLE34=35
TTITLE35=36
TTITLE36=37
TTITLE37=38
TTITLE38=39
TTITLE39=40
TTITLE40=41
TTITLE41=42
TTITLE42=43
TTITLE43=44
TTITLE44=45
TTITLE45=46
TTITLE46=47
TTITLE47=48
TTITLE48=49
TTITLE49=50
TTITLE50=51
TTITLE51=52
TTITLE52=53
TTITLE53=54
TTITLE54=55
TTITLE55=56
TTITLE56=57
TTITLE57=58
TTITLE58=59
TTITLE59=60
TTITLE60=61
TTITLE61=62
TTITLE62=63
TTITLE63=64
TTITLE64=65
TTITLE65=66
TTITLE66=67
TTITLE67=68
TTITLE68=69
TTITLE69=70
TTITLE70=71
TTITLE71=72
TTITLE72=73
TTITLE73=74
TTITLE74=75
TTITLE75=76
TTITLE76=77
TTITLE77=78
TTITLE78=79
TTITLE79=80
TTITLE80=81
TTITLE81=82
TTITLE82=83
TTITLE83=84
TTITLE84=85
TTITLE85=86
TTITLE86=87
TTITLE87=88
TTITLE88=89
TTITLE89=90
TTITLE90=91
TTITLE91=92
TTITLE92=93
TTITLE93=94
TTITLE94=95
TTITLE95=96
TTITLE96=Music
EXTD=ID3G: 0
EXTT0=
EXTT1=
EXTT2=
EXTT3=
EXTT4=
EXTT5=
EXTT6=
EXTT7=
EXTT8=
EXTT9=
EXTT10=
EXTT11=
EXTT12=
EXTT13=
EXTT14=
EXTT15=
EXTT16=
EXTT17=
EXTT18=
EXTT19=
EXTT20=
EXTT21=
EXTT22=
EXTT23=
EXTT24=
EXTT25=
EXTT26=
EXTT27=
EXTT28=
EXTT29=
EXTT30=
EXTT31=
EXTT32=
EXTT33=
EXTT34=
EXTT35=
EXTT36=
EXTT37=
EXTT38=
EXTT39=
EXTT40=
EXTT41=
EXTT42=
EXTT43=
EXTT44=
EXTT45=
EXTT46=
EXTT47=
EXTT48=
EXTT49=
EXTT50=
EXTT51=
EXTT52=
EXTT53=
EXTT54=
EXTT55=
EXTT56=
EXTT57=
EXTT58=
EXTT59=
EXTT60=
EXTT61=
EXTT62=
EXTT63=
EXTT64=
EXTT65=
EXTT66=
EXTT67=
EXTT68=
EXTT69=
EXTT70=
EXTT71=
EXTT72=
EXTT73=
EXTT74=
EXTT75=
EXTT76=
EXTT77=
EXTT78=
EXTT79=
EXTT80=
EXTT81=
EXTT82=
EXTT83=
EXTT84=
EXTT85=
EXTT86=
EXTT87=
EXTT88=
EXTT89=
EXTT90=
EXTT91=
EXTT92=
EXTT93=
EXTT94=
EXTT95=
EXTT96=
PLAYORDER=
